<svg width="21" height="26" viewBox="0 0 21 26" fill="none" xmlns="http://www.w3.org/2000/svg">
<path d="M10.1074 1.40625C10.1562 1.60156 10.9375 5.99609 10.9375 7.65625C10.9375 10.2441 9.57031 12.0508 7.56836 12.7832L8.20312 24.4043C8.20312 25.0879 7.66602 25.625 7.03125 25.625H3.90625C3.22266 25.625 2.68555 25.0879 2.73438 24.4043L3.32031 12.7832C1.31836 12.0508 0 10.2441 0 7.65625C0 5.99609 0.732422 1.60156 0.78125 1.40625C0.927734 0.380859 2.97852 0.380859 3.125 1.45508V8.33984C3.17383 8.48633 3.85742 8.48633 3.90625 8.33984C3.95508 7.11914 4.24805 1.55273 4.29688 1.40625C4.44336 0.380859 6.44531 0.380859 6.5918 1.40625C6.64062 1.55273 6.93359 7.11914 6.98242 8.33984C7.03125 8.48633 7.71484 8.48633 7.76367 8.33984V1.45508C7.91016 0.380859 9.96094 0.380859 10.1074 1.40625ZM15.9668 15.3223C8.30078 9.36523 15.0879 0.625 19.1406 0.625C19.7754 0.625 20.3125 1.16211 20.3125 1.79688V24.4531C20.3125 25.1367 19.7754 25.625 19.1406 25.625H16.4062C15.7227 25.625 15.1367 25.0391 15.2344 24.3555L15.9668 15.3223Z" fill="#E28707"/>
</svg>
